<?xml version="1.0" encoding="utf-8"?>
<!-- Generator: Adobe Illustrator 21.1.0, SVG Export Plug-In . SVG Version: 6.00 Build 0)  -->
<svg version="1.1" id="Capa_1" xmlns="http://www.w3.org/2000/svg" xmlns:xlink="http://www.w3.org/1999/xlink" x="0px" y="0px"
	 viewBox="0 0 108 38" style="enable-background:new 0 0 108 38;" xml:space="preserve">
<style type="text/css">
	.st0{fill:#FF6815;}
</style>
<g>
	<g>
		<path class="st0" d="M20.2,13.9l3.5-8.6L14.5,4l1.1,1.8l-9.7,5.6c-1.7,1-2.3,3.2-1.3,4.9c0.2,0.4,0.5,0.7,0.8,0.9l0,0l0.1,0.1
			c0.1,0,0.1,0.1,0.2,0.1l3.6,2.8c-0.6-1-0.2-2.3,0.8-2.9l9.3-5.4L20.2,13.9z"/>
		<path class="st0" d="M20.5,20.3c-0.2-0.4-0.5-0.7-0.8-0.9l0,0l-0.1-0.1l-0.1-0.1l-3.6-2.8c0.6,1,0.2,2.3-0.8,2.9l-0.4,0.3l0,0
			c-1.7,1-5.2,3-7.2,4.2C4.7,25.2,4,26.4,4,29.9S4,34,4,34l15.2-8.8C20.9,24.2,21.5,22,20.5,20.3z"/>
	</g>
	<g>
		<path class="st0" d="M33.5,8c0.5,0,0.9,0.2,1.2,0.5s0.5,0.7,0.5,1.2v5.5c1.1-0.9,2.6-1.4,4.6-1.4c2.2,0,4.1,0.8,5.7,2.4
			c1.6,1.6,2.4,3.5,2.4,5.7s-0.8,4.1-2.4,5.7C44,29.2,42.1,30,39.8,30c-2.2,0-4.1-0.8-5.7-2.4c-1.6-1.6-2.4-3.5-2.4-5.7V9.7
			c0-0.5,0.2-0.9,0.5-1.2C32.6,8.2,33,8,33.5,8L33.5,8z M39.8,17.3c-1.3,0-2.4,0.5-3.3,1.4c-0.9,0.9-1.3,2-1.3,3.3s0.4,2.4,1.3,3.3
			c0.9,0.9,2,1.4,3.3,1.4s2.4-0.5,3.3-1.4c0.9-0.9,1.4-2,1.4-3.3s-0.5-2.4-1.4-3.3C42.2,17.7,41.1,17.3,39.8,17.3z"/>
		<path class="st0" d="M54.7,17.2c-0.4,0-0.8,0.1-1,0.4c-0.3,0.3-0.4,0.6-0.4,1c0,0.6,0.3,1,0.8,1.3c0.2,0.1,1,0.3,2.3,0.7
			c1.1,0.3,1.9,0.7,2.5,1.2c0.8,0.7,1.2,1.8,1.2,3.2c0,1.3-0.5,2.5-1.4,3.5c-1,1-2.1,1.4-3.5,1.4h-3.7c-0.5,0-0.9-0.2-1.2-0.5
			s-0.5-0.7-0.5-1.2l0,0c0-0.5,0.2-0.9,0.5-1.2c0.3-0.3,0.7-0.5,1.2-0.5h3.8c0.4,0,0.8-0.1,1-0.4c0.3-0.3,0.4-0.6,0.4-1
			c0-0.5-0.3-0.9-0.8-1.2c-0.1-0.1-0.9-0.3-2.4-0.7c-1.1-0.3-1.9-0.8-2.5-1.3c-0.8-0.8-1.2-1.8-1.2-3.2c0-1.3,0.5-2.5,1.4-3.5
			c1-1,2.1-1.4,3.5-1.4h2.6c0.5,0,0.9,0.2,1.2,0.5S59,15,59,15.5l0,0c0,0.5-0.2,0.9-0.5,1.2s-0.7,0.5-1.2,0.5
			C57.3,17.2,54.7,17.2,54.7,17.2z"/>
		<path class="st0" d="M76.1,16.2c1.6,1.6,2.4,3.5,2.4,5.7v6.4c0,0.5-0.2,0.9-0.5,1.2c-0.3,0.3-0.7,0.5-1.2,0.5l0,0
			c-0.5,0-0.9-0.2-1.2-0.5c-0.3-0.3-0.5-0.7-0.5-1.2C74,29.4,72.5,30,70.5,30c-2.2,0-4.1-0.8-5.7-2.4s-2.4-3.5-2.4-5.7
			s0.8-4.1,2.4-5.7c1.6-1.6,3.5-2.4,5.7-2.4C72.6,13.8,74.5,14.6,76.1,16.2z M67,18.6c-0.9,0.9-1.3,2-1.3,3.3s0.4,2.4,1.3,3.3
			s2,1.3,3.3,1.3s2.4-0.4,3.3-1.3s1.4-2,1.4-3.3s-0.5-2.4-1.4-3.3s-2-1.4-3.3-1.4C69.1,17.2,68,17.7,67,18.6z"/>
		<path class="st0" d="M83.5,8c0.5,0,0.9,0.2,1.2,0.5c0.3,0.3,0.5,0.7,0.5,1.2v18.5c0,0.5-0.2,0.9-0.5,1.2C84.4,29.8,84,30,83.5,30
			l0,0c-0.5,0-0.9-0.2-1.2-0.5c-0.3-0.3-0.5-0.7-0.5-1.2V9.7c0-0.5,0.2-0.9,0.5-1.2C82.6,8.2,83,8,83.5,8L83.5,8z"/>
		<path class="st0" d="M103.6,18.5c0.1,0.2,0.2,0.5,0.2,0.7s0,0.4-0.1,0.6c-0.2,0.4-0.5,0.8-0.9,1c-1.3,0.6-3,1.4-5.2,2.3
			c-2.6,1.2-4.2,1.9-4.7,2.1c0.7,0.9,1.8,1.3,3.3,1.3c1,0,1.9-0.3,2.7-0.9c0.8-0.6,1.4-1.3,1.7-2.2c0.3-0.8,0.8-1.2,1.6-1.2
			c0.6,0,1,0.2,1.4,0.7c0.2,0.3,0.3,0.6,0.3,0.9c0,0.2,0,0.4-0.1,0.6c-0.6,1.6-1.5,2.9-2.9,3.9s-3,1.5-4.7,1.5
			c-2.2,0-4.1-0.8-5.7-2.4s-2.4-3.5-2.4-5.7s0.8-4.1,2.4-5.7s3.5-2.4,5.7-2.4c1.6,0,3.1,0.4,4.4,1.3C102,16,103,17.1,103.6,18.5z
			 M96.3,17.3c-1.3,0-2.4,0.5-3.3,1.4s-1.3,2-1.3,3.3v0l7.8-3.5C98.8,17.7,97.7,17.3,96.3,17.3z"/>
	</g>
</g>
</svg>
